<?xml version="1.0" encoding="UTF-8"?>
<svg version="1.1" viewBox="0 0 1976 1572" width="494" height="393" xmlns="http://www.w3.org/2000/svg">
<path transform="translate(523,537)" d="m0 0h365l39 3 22 3 25 6 23 6 27 11 20 9 19 10 27 18 12 9 14 11 12 11 8 7 14 14 7 8 11 13 15 20 13 21 15 28 9 21 12 36 5 19 5 29 2 18 1 16v38l-2 25-5 29-5 20-8 26-11 28-13 26-9 14-15 23-10 13-9 10-7 8-9 10-18 18-22 18-17 12-18 11-22 12-23 11-23 9-24 7-23 5-20 3-28 3-17 1-113 1h-245l-10-1-2-6-1-38v-124l1-555 2-3z" fill="#AC77E9"/>
<path transform="translate(523,537)" d="m0 0h365l39 3 22 3 25 6 23 6 27 11 20 9 10 5v2l-8-2v-2l-3 1-10-6-10-4-13-5-5-3-6-1v-2h-5l-1-1-10-1v-2l-13-2-8-3-11-1v-2l-3 1-12-2-10-1-4-1-36-2-17 1-13-1h-137l-18-1-1 200v246l1 95 482-1 11-2 5-5 10-18 1 3-11 21-14 22-8 12-10 13-9 10-7 8-9 10-18 18-22 18-17 12-18 11-22 12-23 11-23 9-24 7-23 5-20 3-28 3-17 1-113 1h-245l-10-1-2-6-1-38v-124l1-555 2-3z" fill="#7923D2"/>
<path transform="translate(722,317)" d="m0 0h162l41 2 37 4 36 6 28 6 28 8 21 7 26 10 25 11 25 12 23 13 14 8 12 8 17 12 21 16 14 11 13 11 8 7 13 12 18 18 7 8 13 14 9 11 12 15 13 18 12 17 12 19 15 27 8 16 11 23 13 34 12 36 10 38 7 37 5 39 2 30v55l-3 35-7 43-9 38-7 21-4 6-5 2-10 1h-138l-31-1-5-3 3-10 13-33 7-21 6-23 6-32 2-18 1-22v-23l-2-30-3-23-6-32-7-28-10-29-10-23-8-17-12-21-14-21-11-15-11-14-11-12-7-8-16-16-2-1v-2l-4-2-8-8-14-11-19-14-19-12-18-10-23-12-31-13-26-8-28-7-24-4-29-3-23-1-178-1-8-2-1-3-1-160 1-13 3-2z" fill="#52188C"/>
<path transform="translate(923,540)" d="m0 0 20 2 24 5 30 8 27 11 20 9 10 5v2l-8-2v-2l-3 1-10-6-10-4-13-5-5-3-6-1v-2h-5l-1-1-10-1v-2l-13-2-8-3-11-1v-2l-3 1-12-2-10-1-1-3z" fill="#8130D5"/>
<path transform="translate(1144,652)" d="m0 0 4 1 10 11 9 11 14 18 12 19 16 29 8 18-1 3-9-19-3-5v-3h-2l-4-8-2-3v-3h-2l-4-8v-3h-2l-6-9v-3h-2l-2-6h-2l-2-3v-3l-4-2-7-9-3-3v-3h-2v-2h-2v-2h-2v-2l-4-2-1-3-3-2v-2z" fill="#8435D7"/>
<path transform="translate(993,555)" d="m0 0 7 1 24 10 20 9 10 5v2l-8-2v-2l-3 1-10-6-10-4-13-5-5-3-6-1v-2h-5z" fill="#8435D7"/>
<path transform="translate(1144,652)" d="m0 0 4 1 10 11 9 11 8 10-3 1-9-11-3-3v-3h-2v-2h-2v-2h-2v-2l-4-2-1-3-3-2v-2z" fill="#8435D7"/>
<path transform="translate(1174,686)" d="m0 0 5 5 8 11 5 9-4-1-6-9v-3h-2l-2-6h-2l-2-3z" fill="#8130D5"/>
<path transform="translate(1103,614)" d="m0 0 4 2 10 8 10 9-2 1-3-2-4-3v-2l-4-2-4-3v-2l-4-2-3-2z" fill="#873BD8"/>
<path transform="translate(1160,669)" d="m0 0 4 2 11 14-3 1-9-11-3-3z" fill="#8537D7"/>
<path transform="translate(1055,582)" d="m0 0 6 2 13 8v2l-4-1-4-3-4-1v-2l-5-2-2-1z" fill="#8537D7"/>
<path transform="translate(1036,572)" d="m0 0 6 2 12 6v2l-8-2v-2l-3 1-6-4z" fill="#8537D7"/>
<path transform="translate(1209,1055)" d="m0 0 1 3-9 18-2-3z" fill="#8639D8"/>
<path transform="translate(1190,711)" d="m0 0 3 1 5 10-4-1-4-8z" fill="#8334D6"/>
<path transform="translate(1090,605)" d="m0 0 4 1 8 6v2l-4-1v-2l-4-2z" fill="#893ED9"/>
<path transform="translate(1218,767)" d="m0 0 4 4 2 6v5l-2-3-4-9z" fill="#8232D6"/>
<path transform="translate(1075,594)" d="m0 0 5 2 6 4-1 3-8-6-2-1z" fill="#8639D8"/>
</svg>
